<svg xmlns="http://www.w3.org/2000/svg" width="51.5" height="110.686" viewBox="0 0 51.5 110.686"><path fill="#E54D55" d="M0 0v110.687l25.75-29.52 25.75 29.52V0z"/><path d="M17.39 61.255c0-.806.098-1.496.292-2.07.194-.576.414-1.016.658-1.317.417 0 .9-.007 1.446-.02.547-.016 1.014-.052 1.402-.11.072.16.123.35.15.573s.044.44.044.64c-.618.12-1.125.25-1.52.39-.396.15-.706.32-.93.51-.222.2-.376.41-.463.65-.09.24-.13.5-.13.77 0 .65.18 1.16.56 1.53s.9.56 1.59.56c.63 0 1.15-.16 1.55-.49s.76-.74 1.08-1.24c.31-.49.61-1.03.89-1.61.28-.57.6-1.11.97-1.6s.81-.91 1.33-1.24c.52-.33 1.17-.49 1.96-.49.54 0 1.06.11 1.56.334.5.226.93.53 1.303.92s.67.85.887 1.38.324 1.116.324 1.75c0 .503-.023.945-.074 1.326-.05.38-.13.73-.236 1.055-.107.326-.247.65-.42.974-.17.32-.39.68-.647 1.09-.547-.09-1.093-.15-1.64-.17-.546-.02-1.02-.03-1.424-.03-.04-.16-.074-.346-.095-.56-.02-.21-.033-.414-.033-.6.55-.03 1.04-.1 1.47-.218.43-.113.8-.29 1.11-.53.31-.234.55-.55.714-.946.164-.393.25-.893.25-1.5 0-.4-.06-.752-.187-1.054-.125-.305-.287-.556-.488-.758-.2-.2-.434-.355-.7-.464-.266-.104-.55-.16-.853-.16-.646 0-1.17.167-1.574.498-.4.33-.75.747-1.046 1.24-.296.5-.576 1.04-.843 1.62-.265.58-.58 1.12-.95 1.62-.365.496-.82.91-1.37 1.24-.544.33-1.26.496-2.134.496-.56 0-1.074-.1-1.54-.29s-.87-.466-1.21-.81c-.337-.35-.596-.76-.776-1.24-.18-.486-.27-1.023-.27-1.61zm12.042-16.55c.748 0 1.248-.104 1.5-.313.252-.208.377-.53.377-.96.13-.043.26-.072.41-.086.14-.014.31-.022.51-.022-.03.316-.05.676-.06 1.08-.01.402-.01.826-.01 1.272 0 .446 0 .903.02 1.37.01.468.03.867.04 1.198-.42 0-.73-.036-.93-.108 0-.518-.14-.896-.4-1.133s-.76-.356-1.48-.356h-3.28c-.51 0-.93.05-1.27.15-.34.102-.61.242-.81.422-.2.18-.347.39-.43.63-.09.24-.13.51-.13.8 0 .29.06.57.19.86.13.29.34.54.627.77.29.23.66.42 1.11.57s1.014.22 1.675.22h2.31c.72 0 1.21-.108 1.477-.32s.4-.608.4-1.17c.13-.042.265-.07.41-.085.142-.015.314-.02.52-.02-.017.3-.03.692-.04 1.174-.02.483-.02.95-.02 1.393s0 .907.01 1.38.02.87.05 1.19c-.418 0-.728-.036-.93-.108 0-.56-.134-.95-.4-1.167s-.76-.325-1.48-.325h-9.65c-.26 0-.48.018-.67.046-.185.03-.343.1-.473.22-.13.116-.225.28-.29.497s-.1.503-.1.863c-.153 0-.3-.016-.43-.045-.13-.03-.25-.08-.364-.15 0-.16-.02-.37-.064-.644-.04-.272-.096-.553-.16-.84-.065-.29-.145-.56-.24-.82-.09-.26-.18-.453-.27-.583.045-.13.13-.24.26-.33.13-.098.33-.14.605-.14h5.48c.18 0 .37.002.59.02.22.01.45.06.69.13-.07-.048-.15-.09-.25-.13-.09-.047-.2-.11-.31-.198-.17-.116-.35-.274-.53-.476-.18-.2-.34-.435-.492-.7-.15-.267-.275-.56-.376-.886-.1-.326-.15-.68-.15-1.07 0-.403.06-.79.182-1.165s.32-.706.59-.994c.27-.283.63-.51 1.08-.68.44-.16 1-.243 1.66-.243h3.71zm-.475-10.68c.69 0 1.15-.076 1.38-.227.23-.15.346-.486.346-1.003.158 0 .334.01.53.032.193.02.355.062.484.12.058.374.147.772.27 1.197.123.424.255.788.4 1.09-.06.143-.167.27-.325.377s-.403.17-.734.17c-.216 0-.396 0-.54-.02-.143-.01-.265-.02-.366-.02.188.06.375.14.56.25.19.11.397.29.627.55.21.25.39.54.52.9s.2.78.2 1.26c0 .94-.2 1.64-.61 2.11s-.97.7-1.69.7c-.708 0-1.28-.2-1.718-.61-.436-.41-.79-.9-1.055-1.49s-.46-1.18-.58-1.81c-.12-.62-.22-1.16-.29-1.602-.448 0-.814.004-1.103.02-.29.013-.53.034-.724.063s-.355.075-.484.14c-.13.064-.25.14-.37.227-.43.344-.647.805-.647 1.38 0 .33.085.61.26.84.17.23.383.42.635.57.25.15.52.26.81.323.29.063.555.102.8.12 0 .156-.015.353-.036.59-.02.236-.06.41-.12.527-.354-.026-.753-.034-1.19-.02-.44.016-.826.06-1.157.13-.285-.575-.52-1.18-.7-1.812-.18-.63-.27-1.284-.27-1.96 0-.49.08-.906.23-1.25.15-.346.354-.655.613-.93.19-.186.39-.337.605-.452s.47-.203.766-.27c.296-.062.63-.11 1.004-.14s.82-.04 1.34-.04h2.31zm-1.683 1.94c.043.375.104.764.183 1.166.08.41.198.77.356 1.11s.377.61.658.83c.29.23.66.34 1.14.34.54 0 .92-.13 1.17-.39.25-.26.37-.55.37-.88 0-.23-.05-.47-.17-.72-.11-.25-.29-.48-.54-.7s-.55-.39-.93-.52c-.38-.14-.84-.207-1.39-.207h-.82zm-1.532-8.327c.317.1.64.16.97.173H29c.475 0 .856-.03 1.144-.1.288-.07.518-.18.69-.34.173-.16.292-.35.356-.59.065-.24.104-.53.12-.87.2-.07.51-.1.927-.1-.03.33-.047.74-.054 1.23-.007.49-.01.986-.01 1.49v.798c0 .27.002.54.01.796l.02.713s.02.395.034.54c-.417 0-.727-.037-.928-.11-.03-.575-.17-.967-.42-1.176s-.74-.316-1.46-.316h-4.27c-.26 0-.49.017-.67.053-.19.033-.34.11-.47.224-.12.117-.22.278-.28.487-.07.21-.11.493-.12.852-.16 0-.3-.017-.43-.046s-.25-.08-.37-.15c-.02-.217-.05-.458-.1-.725-.05-.26-.11-.53-.17-.79-.07-.27-.14-.52-.22-.758-.08-.234-.16-.44-.25-.612.04-.13.13-.24.27-.335.13-.096.36-.14.68-.14.5 0 .95.04 1.33.13l.88.19c-.218-.085-.41-.15-.58-.19-.26-.09-.48-.19-.65-.306-.506-.315-.92-.69-1.25-1.12-.335-.43-.5-.93-.5-1.49 0-.288.04-.55.13-.788s.213-.47.385-.7c.36.06.78.096 1.262.12s.91.03 1.28.03c.04.13.084.306.13.53.04.222.062.456.062.7-.69.03-1.147.14-1.36.334-.218.196-.326.438-.326.725 0 .186.08.39.24.603s.377.417.658.596c.28.18.61.33.983.46zm1.618-8.91c.014.474.036.935.064 1.38.317-.014.626-.05.928-.108.518-.1.986-.27 1.403-.507.417-.237.755-.557 1.014-.96.25-.403.38-.92.38-1.554 0-.48-.11-.95-.32-1.41-.21-.46-.52-.87-.94-1.23.07-.12.17-.23.3-.33s.25-.17.37-.2c.64.5 1.11 1.07 1.38 1.7.27.63.41 1.343.41 2.14 0 .76-.14 1.43-.41 2s-.64 1.055-1.1 1.436c-.46.38-1.01.667-1.63.854-.63.187-1.29.28-2 .28-.69 0-1.35-.104-1.97-.312-.62-.205-1.166-.5-1.64-.88-.476-.38-.85-.85-1.12-1.4-.27-.554-.41-1.177-.41-1.867 0-.7.12-1.3.355-1.79s.56-.89.96-1.202.874-.557 1.413-.72c.54-.166 1.12-.27 1.74-.31.29.06.533.17.734.322v1.1c0 .49.003 1.04.01 1.65.01.61.026 1.244.055 1.905zm-2.352 1.23c.36.085.798.143 1.316.172v-4.143c-.95 0-1.72.173-2.31.518s-.884.834-.884 1.467c0 .26.054.518.162.777.108.25.302.49.583.7.28.2.66.37 1.133.5z" fill="#fff"/></svg>